<?xml version="1.0" encoding="utf-8"?>
<!-- Generator: Adobe Illustrator 17.1.0, SVG Export Plug-In . SVG Version: 6.00 Build 0)  -->
<!DOCTYPE svg PUBLIC "-//W3C//DTD SVG 1.1//EN" "http://www.w3.org/Graphics/SVG/1.1/DTD/svg11.dtd">
<svg version="1.1" id="Layer_1" xmlns="http://www.w3.org/2000/svg" xmlns:xlink="http://www.w3.org/1999/xlink" x="0px" y="0px"
	 width="870px" height="304px" viewBox="193.7 69.4 870 304" enable-background="new 193.7 69.4 870 304" xml:space="preserve">
<g>
	<g id="remia_________idėją_ir_kuria_muziejų_kartu_x21__copy">
		<g>
			<path fill="#FF2929" d="M209.2,250.8h-12.9c-0.9,0-1.3-0.4-1.3-1.3v-74.7c0-0.9,0.4-1.3,1.3-1.3h15.2c12.9,0,23,5.2,23,22.1
				c0,6.5-1.5,14.1-8.6,19.1l9.2,34.8c0.2,0.9-0.2,1.4-1.2,1.4h-12.9c-0.9,0-1.3-0.4-1.5-1.2l-7.1-31.8h-1.7v31.7
				C210.5,250.4,210.1,250.8,209.2,250.8z M210.5,206h2c4.5,0,6.4-4.6,6.4-10.3c0-7.2-2.9-10.3-7-10.3h-1.4V206z"/>
			<path fill="#FF2929" d="M239.9,174.8c0-0.9,0.4-1.3,1.3-1.3h30.6c0.9,0,1.3,0.4,1.3,1.3v9.9c0,0.9-0.4,1.3-1.3,1.3h-16.4v19h11.7
				c0.9,0,1.3,0.4,1.3,1.3v10.6c0,0.9-0.4,1.3-1.3,1.3h-11.7v20.2h17.1c0.9,0,1.3,0.4,1.3,1.3v9.9c0,0.9-0.4,1.3-1.3,1.3h-31.4
				c-0.9,0-1.3-0.4-1.3-1.3V174.8z"/>
			<path fill="#FF2929" d="M331.2,173.5c0.9,0,1.3,0.4,1.3,1.3v74.7c0,0.9-0.4,1.3-1.3,1.3h-11.4c-0.9,0-1.3-0.4-1.3-1.3v-44.4h-0.8
				l-8.6,44.5c-0.1,0.8-0.5,1.2-1.3,1.2h-4.3c-0.8,0-1.2-0.4-1.3-1.2l-8.6-44.5h-0.8v44.4c0,0.9-0.4,1.3-1.3,1.3h-11.4
				c-0.9,0-1.3-0.4-1.3-1.3v-74.7c0-0.9,0.4-1.3,1.3-1.3h16.3c0.8,0,1.1,0.4,1.3,1.2l8,34.9l8-34.9c0.2-0.8,0.5-1.2,1.3-1.2H331.2z"
				/>
			<path fill="#FF2929" d="M340.4,174.8c0-0.9,0.4-1.3,1.3-1.3h12.9c0.9,0,1.3,0.4,1.3,1.3v74.7c0,0.9-0.4,1.3-1.3,1.3h-12.9
				c-0.9,0-1.3-0.4-1.3-1.3V174.8z"/>
			<path fill="#FF2929" d="M405.1,249.4c0.1,0.9-0.3,1.4-1.3,1.4h-12.7c-0.9,0-1.3-0.4-1.4-1.2l-2.5-22.4h-8.8l-2.5,22.4
				c-0.1,0.8-0.5,1.2-1.4,1.2h-12.7c-1,0-1.4-0.5-1.3-1.4l10.8-74.7c0.1-0.8,0.5-1.2,1.4-1.2h20.3c0.9,0,1.3,0.4,1.4,1.2
				L405.1,249.4z M386.9,215.6l-3.4-27.6h-1.3l-3.4,27.6L386.9,215.6L386.9,215.6z"/>
			<path fill="#FF2929" d="M611.4,174.8c0-0.9,0.4-1.3,1.3-1.3h12.9c0.9,0,1.3,0.4,1.3,1.3v74.7c0,0.9-0.4,1.3-1.3,1.3h-12.9
				c-0.9,0-1.3-0.4-1.3-1.3V174.8z"/>
			<path fill="#FF2929" d="M634.9,174.8c0-0.9,0.4-1.3,1.3-1.3h11.6c24.3,0,26.5,15.4,26.5,38.7c0,22.2-1.8,38.7-24.3,38.7h-13.9
				c-0.9,0-1.3-0.4-1.3-1.3L634.9,174.8L634.9,174.8z M650.4,238.4c7.4,0,7.8-2.7,7.8-26.3c0-23.5-0.3-26.1-7.8-26.1V238.4z"/>
			<path fill="#FF2929" d="M680.8,174.8c0-0.9,0.4-1.3,1.3-1.3h30.6c0.9,0,1.3,0.4,1.3,1.3v9.9c0,0.9-0.4,1.3-1.3,1.3h-16.4v19h11.8
				c0.9,0,1.3,0.4,1.3,1.3v10.6c0,0.9-0.4,1.3-1.3,1.3h-11.8v20.2h17.1c0.9,0,1.3,0.4,1.3,1.3v9.9c0,0.9-0.4,1.3-1.3,1.3h-31.4
				c-0.9,0-1.3-0.4-1.3-1.3L680.8,174.8L680.8,174.8z M693.3,160c0-0.9,0.4-1.3,1.3-1.3h6.5c0.9,0,1.3,0.4,1.3,1.3v6.4
				c0,0.9-0.4,1.3-1.3,1.3h-6.5c-0.9,0-1.3-0.4-1.3-1.3V160z"/>
			<path fill="#FF2929" d="M742.1,235.4c0,11.8-5,15.9-16.5,15.9c-2.7,0-5.5-0.2-7.5-0.4c-0.8-0.1-1.2-0.6-1.2-1.4v-10
				c0-0.9,0.4-1.2,1.3-1.2h3.7c3.9,0,4.7-2.2,4.7-6.4v-57.2c0-0.9,0.4-1.3,1.3-1.3h12.9c0.9,0,1.3,0.4,1.3,1.3L742.1,235.4
				L742.1,235.4z"/>
			<path fill="#FF2929" d="M776.6,263.5c0-3.9,2.5-8.5,6.9-12.7h-7c-0.9,0-1.3-0.4-1.4-1.2l-2.5-22.4h-8.8l-2.5,22.4
				c-0.1,0.8-0.5,1.2-1.4,1.2h-12.7c-1,0-1.4-0.5-1.3-1.4l10.8-74.7c0.1-0.8,0.5-1.2,1.4-1.2h20.3c0.9,0,1.3,0.4,1.4,1.2l10.8,74.7
				c0.1,0.8-0.1,1.2-0.9,1.9c-3.4,3.3-6.9,9.5-6.9,12.2c0,1.1,0.4,1.6,1.1,1.6c0.9,0,1.2-0.9,1.2-1.9c0-0.4,0.3-0.6,0.6-0.6h4.1
				c0.4,0,0.8,0.3,0.8,1.1c0,3.6-2.8,6.7-7,6.7C779.3,270.3,776.6,267.5,776.6,263.5z M772.2,215.6l-3.4-27.6h-1.3l-3.4,27.6
				L772.2,215.6L772.2,215.6z"/>
			<path fill="#FF2929" d="M195,277.3c0-0.9,0.4-1.3,1.3-1.3h12.9c0.9,0,1.3,0.4,1.3,1.3V352c0,0.9-0.4,1.3-1.3,1.3h-12.9
				c-0.9,0-1.3-0.4-1.3-1.3V277.3z"/>
			<path fill="#FF2929" d="M232.7,353.3h-12.9c-0.9,0-1.3-0.4-1.3-1.3v-74.7c0-0.9,0.4-1.3,1.3-1.3H235c12.9,0,23,5.2,23,22.1
				c0,6.5-1.5,14.1-8.6,19.1l9.2,34.8c0.2,0.9-0.2,1.4-1.2,1.4h-12.9c-0.9,0-1.3-0.4-1.5-1.2l-7.1-31.8H234V352
				C234,352.9,233.6,353.3,232.7,353.3z M234,308.5h2c4.5,0,6.4-4.6,6.4-10.3c0-7.2-2.9-10.3-7-10.3H234L234,308.5z"/>
			<path fill="#FF2929" d="M300,353.3h-12.9c-0.9,0-1.3-0.4-1.3-1.3v-74.7c0-0.9,0.4-1.3,1.3-1.3H300c0.9,0,1.3,0.4,1.3,1.3v26.8
				h0.4l9.3-27c0.2-0.8,0.6-1.1,1.4-1.1h13.2c1,0,1.4,0.6,1.1,1.5l-11.8,31l12.4,43.4c0.2,0.9-0.1,1.4-1.1,1.4h-13.3
				c-0.8,0-1.2-0.3-1.4-1.2l-8.6-35.9h-1.6V352C301.3,352.9,300.9,353.3,300,353.3z"/>
			<path fill="#FF2929" d="M369.1,276c0.9,0,1.3,0.4,1.3,1.3v56.5c0,15.1-8.5,21-19.6,21s-19.6-5.9-19.6-21v-56.5
				c0-0.9,0.4-1.3,1.3-1.3h12.9c0.9,0,1.3,0.4,1.3,1.3v55.6c0,5.4,0.6,9.5,4.1,9.5s4.1-4.1,4.1-9.5v-55.6c0-0.9,0.4-1.3,1.3-1.3
				H369.1z"/>
			<path fill="#FF2929" d="M391.8,353.3h-12.9c-0.9,0-1.3-0.4-1.3-1.3v-74.7c0-0.9,0.4-1.3,1.3-1.3h15.2c12.9,0,23,5.2,23,22.1
				c0,6.5-1.5,14.1-8.6,19.1l9.2,34.8c0.2,0.9-0.2,1.4-1.2,1.4h-12.9c-0.9,0-1.3-0.4-1.5-1.2l-7.1-31.8h-1.7V352
				C393.1,352.9,392.7,353.3,391.8,353.3z M393.1,308.5h2c4.5,0,6.4-4.6,6.4-10.3c0-7.2-2.9-10.3-7-10.3h-1.4V308.5z"/>
			<path fill="#FF2929" d="M422.5,277.3c0-0.9,0.4-1.3,1.3-1.3h12.9c0.9,0,1.3,0.4,1.3,1.3V352c0,0.9-0.4,1.3-1.3,1.3h-12.9
				c-0.9,0-1.3-0.4-1.3-1.3V277.3z"/>
			<path fill="#FF2929" d="M487.1,351.9c0.1,0.9-0.3,1.4-1.3,1.4h-12.7c-0.9,0-1.3-0.4-1.4-1.2l-2.5-22.4h-8.8l-2.5,22.4
				c-0.1,0.8-0.5,1.2-1.4,1.2h-12.7c-1,0-1.4-0.5-1.3-1.4l10.8-74.7c0.1-0.8,0.5-1.2,1.4-1.2H475c0.9,0,1.3,0.4,1.4,1.2L487.1,351.9
				z M468.9,318.1l-3.4-27.6h-1.3l-3.4,27.6H468.9z"/>
			<path fill="#FF2929" d="M566.5,276c0.9,0,1.3,0.4,1.3,1.3V352c0,0.9-0.4,1.3-1.3,1.3H555c-0.9,0-1.3-0.4-1.3-1.3v-44.4H553
				l-8.6,44.5c-0.1,0.8-0.5,1.2-1.3,1.2h-4.3c-0.8,0-1.2-0.4-1.3-1.2l-8.6-44.5h-0.8V352c0,0.9-0.4,1.3-1.3,1.3h-11.4
				c-0.9,0-1.3-0.4-1.3-1.3v-74.7c0-0.9,0.4-1.3,1.3-1.3h16.3c0.8,0,1.1,0.4,1.3,1.2l8,34.9l8-34.9c0.2-0.8,0.5-1.2,1.3-1.2
				L566.5,276L566.5,276z"/>
			<path fill="#FF2929" d="M612.9,276c0.9,0,1.3,0.4,1.3,1.3v56.5c0,15.1-8.5,21-19.6,21s-19.6-5.9-19.6-21v-56.5
				c0-0.9,0.4-1.3,1.3-1.3h12.9c0.9,0,1.3,0.4,1.3,1.3v55.6c0,5.4,0.6,9.5,4.1,9.5s4.1-4.1,4.1-9.5v-55.6c0-0.9,0.4-1.3,1.3-1.3
				H612.9z"/>
			<path fill="#FF2929" d="M618.5,346c0-0.6,0.1-1.1,0.2-1.6l17.4-55.9h-14.8c-0.9,0-1.3-0.4-1.3-1.3v-9.9c0-0.9,0.4-1.3,1.3-1.3
				h30.9c0.9,0,1.3,0.4,1.3,1.3v5.3c0,0.6-0.1,1.1-0.2,1.6l-17.9,56.6h16.3c0.9,0,1.3,0.4,1.3,1.3v9.9c0,0.9-0.4,1.3-1.3,1.3h-31.9
				c-0.9,0-1.3-0.4-1.3-1.3V346z"/>
			<path fill="#FF2929" d="M658.6,277.3c0-0.9,0.4-1.3,1.3-1.3h12.9c0.9,0,1.3,0.4,1.3,1.3V352c0,0.9-0.4,1.3-1.3,1.3h-12.9
				c-0.9,0-1.3-0.4-1.3-1.3V277.3z"/>
			<path fill="#FF2929" d="M682.1,277.3c0-0.9,0.4-1.3,1.3-1.3H714c0.9,0,1.3,0.4,1.3,1.3v9.9c0,0.9-0.4,1.3-1.3,1.3h-16.4v19h11.8
				c0.9,0,1.3,0.4,1.3,1.3v10.6c0,0.9-0.4,1.3-1.3,1.3h-11.8v20.2h17.1c0.9,0,1.3,0.4,1.3,1.3v9.9c0,0.9-0.4,1.3-1.3,1.3h-31.4
				c-0.9,0-1.3-0.4-1.3-1.3L682.1,277.3L682.1,277.3z"/>
			<path fill="#FF2929" d="M743.4,337.9c0,11.8-5,15.9-16.5,15.9c-2.7,0-5.5-0.2-7.5-0.4c-0.8-0.1-1.2-0.6-1.2-1.4v-10
				c0-0.9,0.4-1.2,1.3-1.2h3.7c3.9,0,4.7-2.2,4.7-6.4v-57.2c0-0.9,0.4-1.3,1.3-1.3h12.9c0.9,0,1.3,0.4,1.3,1.3L743.4,337.9
				L743.4,337.9z"/>
			<path fill="#FF2929" d="M761.7,366c0-3.4,1.9-7.5,5.5-11.3c-9.9-0.8-17.4-6.9-17.4-20.9v-56.5c0-0.9,0.4-1.3,1.3-1.3h12.9
				c0.9,0,1.3,0.4,1.3,1.3v55.6c0,5.4,0.6,9.5,4.1,9.5s4.1-4.1,4.1-9.5v-55.6c0-0.9,0.4-1.3,1.3-1.3h12.9c0.9,0,1.3,0.4,1.3,1.3
				v56.5c0,12.8-6.1,19.1-14.9,20.6c-3.2,3.4-6.4,9-6.4,11.6c0,1.1,0.4,1.6,1.1,1.6c0.9,0,1.2-0.9,1.2-1.9c0-0.4,0.3-0.6,0.6-0.6
				h4.1c0.4,0,0.8,0.3,0.8,1.1c0,3.6-2.8,6.7-7,6.7C764.4,372.8,761.7,370,761.7,366z"/>
			<path fill="#FF2929" d="M832.9,353.3H820c-0.9,0-1.3-0.4-1.3-1.3v-74.7c0-0.9,0.4-1.3,1.3-1.3h12.9c0.9,0,1.3,0.4,1.3,1.3v26.8
				h0.4l9.3-27c0.2-0.8,0.6-1.1,1.4-1.1h13.2c1,0,1.4,0.6,1.1,1.5l-11.8,31l12.4,43.4c0.2,0.9-0.1,1.4-1.1,1.4h-13.3
				c-0.8,0-1.2-0.3-1.4-1.2l-8.6-35.9h-1.6V352C834.2,352.9,833.8,353.3,832.9,353.3z"/>
			<path fill="#FF2929" d="M906,351.9c0.1,0.9-0.3,1.4-1.3,1.4H892c-0.9,0-1.3-0.4-1.4-1.2l-2.5-22.4h-8.8l-2.5,22.4
				c-0.1,0.8-0.5,1.2-1.4,1.2h-12.7c-1,0-1.4-0.5-1.3-1.4l10.8-74.7c0.1-0.8,0.5-1.2,1.4-1.2h20.3c0.9,0,1.3,0.4,1.4,1.2L906,351.9z
				 M887.8,318.1l-3.4-27.6h-1.3l-3.4,27.6H887.8z"/>
			<path fill="#FF2929" d="M924.8,353.3h-12.9c-0.9,0-1.3-0.4-1.3-1.3v-74.7c0-0.9,0.4-1.3,1.3-1.3H927c12.9,0,23,5.2,23,22.1
				c0,6.5-1.5,14.1-8.6,19.1l9.2,34.8c0.2,0.9-0.2,1.4-1.2,1.4h-12.9c-0.9,0-1.3-0.4-1.5-1.2l-7.1-31.8h-1.7V352
				C926.1,352.9,925.6,353.3,924.8,353.3z M926.1,308.5h2c4.5,0,6.4-4.6,6.4-10.3c0-7.2-2.9-10.3-7-10.3h-1.4L926.1,308.5
				L926.1,308.5z"/>
			<path fill="#FF2929" d="M963.7,288.5h-10.8c-0.9,0-1.3-0.4-1.3-1.3v-9.9c0-0.9,0.4-1.3,1.3-1.3H990c0.9,0,1.3,0.4,1.3,1.3v9.9
				c0,0.9-0.4,1.3-1.3,1.3h-10.8V352c0,0.9-0.4,1.3-1.3,1.3H965c-0.9,0-1.3-0.4-1.3-1.3L963.7,288.5L963.7,288.5z"/>
			<path fill="#FF2929" d="M1032.7,276c0.9,0,1.3,0.4,1.3,1.3v56.5c0,15.1-8.5,21-19.6,21c-11.1,0-19.6-5.9-19.6-21v-56.5
				c0-0.9,0.4-1.3,1.3-1.3h12.9c0.9,0,1.3,0.4,1.3,1.3v55.6c0,5.4,0.6,9.5,4.1,9.5s4.1-4.1,4.1-9.5v-55.6c0-0.9,0.4-1.3,1.3-1.3
				H1032.7z"/>
			<path fill="#FF2929" d="M1041.3,277.3c0-0.9,0.3-1.3,1.2-1.3h12c0.9,0,1.2,0.4,1.2,1.3l-2.6,51.9c0,0.9-0.5,1.3-1.4,1.3h-6.4
				c-0.9,0-1.4-0.4-1.4-1.3L1041.3,277.3z M1055.5,347.4c0,4.1-3.1,7.4-7.1,7.4c-4,0-7.1-3.3-7.1-7.4c0-4,3.1-7.3,7.1-7.3
				C1052.4,340.1,1055.5,343.4,1055.5,347.4z"/>
		</g>
	</g>
	<g id="dernistas__x2013__copy">
		<g>
			<path fill="#FF2929" d="M354,72.2c0-0.9,0.4-1.3,1.3-1.3h11.6c24.3,0,26.5,15.4,26.5,38.7c0,22.2-1.8,38.7-24.3,38.7h-13.9
				c-0.9,0-1.3-0.4-1.3-1.3L354,72.2L354,72.2z M369.5,135.7c7.4,0,7.8-2.7,7.8-26.3c0-23.5-0.3-26.1-7.8-26.1V135.7z"/>
			<path fill="#FF2929" d="M399.9,72.2c0-0.9,0.4-1.3,1.3-1.3h30.6c0.9,0,1.3,0.4,1.3,1.3v9.9c0,0.9-0.4,1.3-1.3,1.3h-16.4v19h11.7
				c0.9,0,1.3,0.4,1.3,1.3v10.6c0,0.9-0.4,1.3-1.3,1.3h-11.7v20.2h17.1c0.9,0,1.3,0.4,1.3,1.3v9.9c0,0.9-0.4,1.3-1.3,1.3h-31.4
				c-0.9,0-1.3-0.4-1.3-1.3L399.9,72.2L399.9,72.2z"/>
			<path fill="#FF2929" d="M453,148.2h-12.9c-0.9,0-1.3-0.4-1.3-1.3V72.2c0-0.9,0.4-1.3,1.3-1.3h15.2c12.9,0,23,5.2,23,22.1
				c0,6.5-1.5,14.1-8.6,19.1l9.2,34.8c0.2,0.9-0.2,1.4-1.2,1.4h-12.9c-0.9,0-1.3-0.4-1.5-1.2l-7.1-31.8h-1.7v31.7
				C454.3,147.8,453.9,148.2,453,148.2z M454.3,103.4h2c4.5,0,6.4-4.6,6.4-10.3c0-7.2-2.9-10.3-7-10.3h-1.4V103.4z"/>
			<path fill="#FF2929" d="M496.8,148.2h-11.9c-0.9,0-1.3-0.4-1.3-1.3V72.2c0-0.9,0.4-1.3,1.3-1.3h13.4c0.8,0,1.2,0.3,1.4,1.1
				l11.3,35.1h0.4V72.2c0-0.9,0.4-1.3,1.3-1.3h11.9c0.9,0,1.3,0.4,1.3,1.3v74.7c0,0.9-0.4,1.3-1.3,1.3h-11.2c-0.8,0-1.2-0.3-1.4-1.1
				l-13.4-42h-0.5v41.8C498.1,147.8,497.7,148.2,496.8,148.2z"/>
			<path fill="#FF2929" d="M533.9,72.2c0-0.9,0.4-1.3,1.3-1.3h12.9c0.9,0,1.3,0.4,1.3,1.3v74.7c0,0.9-0.4,1.3-1.3,1.3h-12.9
				c-0.9,0-1.3-0.4-1.3-1.3V72.2L533.9,72.2z"/>
			<path fill="#FF2929" d="M567.4,123.3c0.9,0,1.3,0.4,1.3,1.3c0.1,7.4,1.6,12.6,5.8,12.6c3.2,0,5-2.6,5-6.8
				c0-7.8-6.9-12.7-10.8-16.3c-9.2-8.4-13.6-14.4-13.6-24.8c0-12.1,6.9-20,18.8-20c13.2,0,19,10.2,19,23.2c0,0.9-0.4,1.3-1.3,1.3
				h-11.9c-0.9,0-1.3-0.4-1.3-1.3c-0.1-5.6-0.5-10.7-4.7-10.7c-2.7,0-4.1,2.6-4.1,6.2c0,5.2,3.2,9.4,7.4,13.1
				c8.7,7.8,16.8,14.6,16.8,27.4c0,12-6.1,21.1-19.5,21.1c-13.6,0-19.8-11.2-19.8-25.1c0-0.9,0.4-1.3,1.3-1.3L567.4,123.3z"/>
			<path fill="#FF2929" d="M606,83.4h-10.8c-0.9,0-1.3-0.4-1.3-1.3v-9.9c0-0.9,0.4-1.3,1.3-1.3h37.1c0.9,0,1.3,0.4,1.3,1.3v9.9
				c0,0.9-0.4,1.3-1.3,1.3h-10.8v63.5c0,0.9-0.4,1.3-1.3,1.3h-12.9c-0.9,0-1.3-0.4-1.3-1.3L606,83.4L606,83.4z"/>
			<path fill="#FF2929" d="M675.7,146.8c0.1,0.9-0.3,1.4-1.3,1.4h-12.7c-0.9,0-1.3-0.4-1.4-1.2l-2.5-22.4H649l-2.5,22.4
				c-0.1,0.8-0.5,1.2-1.4,1.2h-12.7c-1,0-1.4-0.5-1.3-1.4l10.8-74.7c0.1-0.8,0.5-1.2,1.4-1.2h20.3c0.9,0,1.3,0.4,1.4,1.2
				L675.7,146.8z M657.5,113l-3.4-27.6h-1.3l-3.4,27.6H657.5z"/>
			<path fill="#FF2929" d="M689.7,123.3c0.9,0,1.3,0.4,1.3,1.3c0.1,7.4,1.6,12.6,5.8,12.6c3.2,0,5-2.6,5-6.8
				c0-7.8-6.9-12.7-10.8-16.3c-9.2-8.4-13.6-14.4-13.6-24.8c0-12.1,6.9-20,18.8-20c13.2,0,19,10.2,19,23.2c0,0.9-0.4,1.3-1.3,1.3
				H702c-0.9,0-1.3-0.4-1.3-1.3c-0.1-5.6-0.5-10.7-4.7-10.7c-2.7,0-4.1,2.6-4.1,6.2c0,5.2,3.2,9.4,7.4,13.1
				c8.7,7.8,16.8,14.6,16.8,27.4c0,12-6.1,21.1-19.5,21.1c-13.6,0-19.8-11.2-19.8-25.1c0-0.9,0.4-1.3,1.3-1.3L689.7,123.3z"/>
			<path fill="#FF2929" d="M740.6,106.3c0-0.9,0.4-1.3,1.3-1.3h54.5c0.9,0,1.3,0.4,1.3,1.3v5c0,0.9-0.4,1.3-1.3,1.3h-54.5
				c-0.9,0-1.3-0.4-1.3-1.3V106.3z"/>
		</g>
	</g>
	<g id="Vector_Smart_Object_xA0_Image_copy">
		<g>
			<path fill="#FF2929" d="M329.7,128.3c0,9.6-2.3,13.1-5.3,13.1s-5.3-3.5-5.3-13.1l0-5.1c0-9.6,2.3-13.1,5.3-13.1
				c3,0,5.3,3.5,5.3,13.1L329.7,128.3z M324.4,101.8c-12.9,0-21.4,5.5-21.4,23.9c0,18.4,8.5,23.9,21.4,23.9
				c12.9,0,21.4-5.5,21.4-23.9S337.4,101.8,324.4,101.8"/>
		</g>
		<g>
			<path fill="#FF2929" d="M295.1,70.4h-16.5c-0.6,0-1.2,0.4-1.3,1.1l-7.9,38.6h-0.4l-7.7-38.6c-0.1-0.6-0.7-1.1-1.3-1.1h-5.6
				c-0.6,0-1.2,0.4-1.3,1.1l-7.7,38.6l-0.4,0l-7.7-38.6c-0.1-0.6-0.7-1.1-1.3-1.1h-5.6c-0.6,0-1.2,0.4-1.3,1.1l-7.7,38.6l-0.4,0
				l-7.9-38.6c-0.1-0.6-0.7-1.1-1.3-1.1H195c-0.6,0-1.1,0.5-1.1,1.1V147c0,0.6,0.5,1.1,1.1,1.1h11.8c0.6,0,1.1-0.5,1.1-1.1v-39.7
				h0.9l7.9,39.8c0.1,0.6,0.7,1.1,1.3,1.1h5.9c0.6,0,1.2-0.4,1.3-1.1l7.6-39.8h0.4l7.6,39.8c0.1,0.6,0.7,1.1,1.3,1.1h5.8
				c0.6,0,1.2-0.4,1.3-1.1l7.6-39.8h0.4l7.6,39.8c0.1,0.6,0.7,1.1,1.3,1.1h5.9c0.6,0,1.2-0.4,1.3-1.1l7.9-39.8h0.9V147
				c0,0.6,0.5,1.1,1.1,1.1h11.8c0.6,0,1.1-0.5,1.1-1.1V71.5C296.2,70.9,295.7,70.4,295.1,70.4"/>
		</g>
	</g>
	<g>
		<path fill="#FF2929" d="M567.7,231.9c0,9.6-2.3,13.1-5.3,13.1s-5.3-3.5-5.3-13.1l0-5.1c0-9.6,2.3-13.1,5.3-13.1
			c3,0,5.3,3.5,5.3,13.1L567.7,231.9z M562.5,205.5c-12.9,0-21.4,5.5-21.4,23.9c0,18.4,8.5,23.9,21.4,23.9
			c12.9,0,21.4-5.5,21.4-23.9C583.9,210.9,575.4,205.5,562.5,205.5"/>
	</g>
	<g>
		<path fill="#FF2929" d="M533.1,174h-16.5c-0.6,0-1.2,0.4-1.3,1.1l-7.9,38.6h-0.4l-7.7-38.6c-0.1-0.6-0.7-1.1-1.3-1.1h-5.6
			c-0.6,0-1.2,0.4-1.3,1.1l-7.7,38.6l-0.4,0l-7.7-38.6c-0.1-0.6-0.7-1.1-1.3-1.1h-5.6c-0.6,0-1.2,0.4-1.3,1.1l-7.7,38.6l-0.4,0
			l-7.9-38.6c-0.1-0.6-0.7-1.1-1.3-1.1h-16.5c-0.6,0-1.1,0.5-1.1,1.1v75.6c0,0.6,0.5,1.1,1.1,1.1h11.8c0.6,0,1.1-0.5,1.1-1.1V211
			h0.9l7.9,39.8c0.1,0.6,0.7,1.1,1.3,1.1h5.9c0.6,0,1.2-0.4,1.3-1.1l7.6-39.8h0.4l7.6,39.8c0.1,0.6,0.7,1.1,1.3,1.1h5.8
			c0.6,0,1.2-0.4,1.3-1.1l7.6-39.8h0.4l7.6,39.8c0.1,0.6,0.7,1.1,1.3,1.1h5.9c0.6,0,1.2-0.4,1.3-1.1l7.9-39.8h0.9v39.7
			c0,0.6,0.5,1.1,1.1,1.1h11.8c0.6,0,1.1-0.5,1.1-1.1v-75.6C534.2,174.5,533.7,174,533.1,174"/>
	</g>
</g>
</svg>
